<svg xmlns="http://www.w3.org/2000/svg" xmlns:xlink="http://www.w3.org/1999/xlink" preserveAspectRatio="xMidYMid" width="42" height="37" viewBox="0 0 42 37">
  <defs>
    <style>

      .cls-2 {
        fill: #99286b;
      }
    </style>
  </defs>
  <path d="M39.012,14.498 C39.012,14.498 36.776,7.787 36.776,7.787 C36.776,7.787 31.212,7.787 31.212,7.787 C31.212,7.787 31.212,15.587 31.212,15.587 C31.212,15.587 36.412,15.587 36.412,15.587 C36.412,15.587 36.412,18.187 36.412,18.187 C36.412,18.187 28.612,18.187 28.612,18.187 C28.612,18.187 28.612,5.187 28.612,5.187 C28.612,5.187 38.649,5.187 38.649,5.187 C38.649,5.187 41.612,14.077 41.612,14.077 C41.612,14.077 41.612,20.787 41.612,20.787 C41.612,20.787 39.012,20.787 39.012,20.787 C39.012,20.787 39.012,14.498 39.012,14.498 ZM9.048,4.782 C9.048,4.782 11.607,12.582 11.607,12.582 C11.607,12.582 9.137,13.392 9.137,13.392 C9.137,13.392 6.577,5.592 6.577,5.592 C6.577,5.592 9.048,4.782 9.048,4.782 ZM16.888,4.782 C16.888,4.782 19.448,12.582 19.448,12.582 C19.448,12.582 16.977,13.392 16.977,13.392 C16.977,13.392 14.418,5.592 14.418,5.592 C14.418,5.592 16.888,4.782 16.888,4.782 ZM2.612,14.487 C2.612,14.487 23.412,17.952 23.412,17.952 C23.412,17.952 23.412,5.187 23.412,5.187 C23.412,5.187 26.012,5.187 26.012,5.187 C26.012,5.187 26.012,21.022 26.012,21.022 C26.012,21.022 0.012,16.688 0.012,16.688 C0.012,16.688 0.012,-0.013 0.012,-0.013 C0.012,-0.013 41.612,-0.013 41.612,-0.013 C41.612,-0.013 41.612,2.587 41.612,2.587 C41.612,2.587 2.612,2.587 2.612,2.587 C2.612,2.587 2.612,14.487 2.612,14.487 ZM10.412,20.787 C14.714,20.787 18.212,24.286 18.212,28.587 C18.212,32.889 14.714,36.387 10.412,36.387 C6.111,36.387 2.612,32.889 2.612,28.587 C2.612,24.286 6.111,20.787 10.412,20.787 ZM10.412,33.787 C13.280,33.787 15.612,31.455 15.612,28.587 C15.612,25.719 13.280,23.387 10.412,23.387 C7.545,23.387 5.212,25.719 5.212,28.587 C5.212,31.455 7.545,33.787 10.412,33.787 ZM33.812,20.787 C38.114,20.787 41.612,24.286 41.612,28.587 C41.612,32.889 38.114,36.387 33.812,36.387 C29.511,36.387 26.012,32.889 26.012,28.587 C26.012,24.286 29.511,20.787 33.812,20.787 ZM33.812,33.787 C36.680,33.787 39.012,31.455 39.012,28.587 C39.012,25.719 36.680,23.387 33.812,23.387 C30.945,23.387 28.612,25.719 28.612,28.587 C28.612,31.455 30.945,33.787 33.812,33.787 Z" id="path-1" class="cls-2" fill-rule="evenodd"/>
</svg>
