<svg xmlns="http://www.w3.org/2000/svg" xmlns:xlink="http://www.w3.org/1999/xlink" preserveAspectRatio="xMidYMid" width="39" height="39" viewBox="0 0 39 39">
  <defs>
    <style>

      .cls-2 {
        fill: #99286b;
      }
    </style>
  </defs>
  <path d="M19.187,38.387 C8.601,38.387 -0.013,29.774 -0.013,19.187 C-0.013,8.601 8.601,-0.013 19.187,-0.013 C29.774,-0.013 38.387,8.601 38.387,19.187 C38.387,29.774 29.774,38.387 19.187,38.387 ZM19.187,2.387 C9.924,2.387 2.387,9.924 2.387,19.187 C2.387,28.451 9.924,35.987 19.187,35.987 C28.451,35.987 35.987,28.451 35.987,19.187 C35.987,9.924 28.451,2.387 19.187,2.387 ZM23.987,19.187 C23.987,21.418 22.452,23.281 20.387,23.817 C20.387,23.817 20.387,33.587 20.387,33.587 C20.387,33.587 17.987,33.587 17.987,33.587 C17.987,33.587 17.987,23.817 17.987,23.817 C17.553,23.704 17.150,23.521 16.772,23.300 C16.772,23.300 9.853,30.218 9.853,30.218 C9.853,30.218 8.157,28.521 8.157,28.521 C8.157,28.521 15.064,21.614 15.064,21.614 C14.640,20.902 14.387,20.077 14.387,19.187 C14.387,16.957 15.923,15.094 17.987,14.558 C17.987,14.558 17.987,4.787 17.987,4.787 C17.987,4.787 20.387,4.787 20.387,4.787 C20.387,4.787 20.387,14.558 20.387,14.558 C20.822,14.671 21.225,14.854 21.603,15.075 C21.603,15.075 28.521,8.157 28.521,8.157 C28.521,8.157 30.218,9.853 30.218,9.853 C30.218,9.853 23.311,16.761 23.311,16.761 C23.735,17.473 23.987,18.298 23.987,19.187 ZM19.187,16.787 C17.864,16.787 16.787,17.864 16.787,19.187 C16.787,20.510 17.864,21.587 19.187,21.587 C20.510,21.587 21.587,20.510 21.587,19.187 C21.587,17.864 20.510,16.787 19.187,16.787 Z" id="path-1" class="cls-2" fill-rule="evenodd"/>
</svg>
