<svg xmlns="http://www.w3.org/2000/svg" xmlns:xlink="http://www.w3.org/1999/xlink" preserveAspectRatio="xMidYMid" width="22" height="38" viewBox="0 0 22 38">
  <defs>
    <style>

      .cls-2 {
        fill: #99286b;
      }
    </style>
  </defs>
  <path d="M21.301,23.789 C20.133,25.729 18.532,27.244 16.706,28.320 C16.706,28.320 19.190,36.880 19.190,36.880 C19.190,36.880 16.886,37.548 16.886,37.548 C16.886,37.548 14.509,29.356 14.509,29.356 C13.056,29.884 11.523,30.175 9.970,30.175 C8.216,30.175 6.446,29.823 4.767,29.097 C4.767,29.097 2.315,37.548 2.315,37.548 C2.315,37.548 0.011,36.880 0.011,36.880 C0.011,36.880 4.886,20.080 4.886,20.080 C4.886,20.080 7.190,20.748 7.190,20.748 C7.190,20.748 5.442,26.771 5.442,26.771 C8.154,28.032 11.183,28.066 13.841,27.056 C13.841,27.056 12.011,20.748 12.011,20.748 C12.011,20.748 14.315,20.080 14.315,20.080 C14.315,20.080 16.013,25.933 16.013,25.933 C17.287,25.080 18.404,23.950 19.246,22.551 C19.246,22.551 21.301,23.789 21.301,23.789 ZM9.638,19.214 C6.329,19.214 3.638,16.522 3.638,13.214 C3.638,9.905 6.329,7.214 9.638,7.214 C12.946,7.214 15.638,9.905 15.638,13.214 C15.638,16.522 12.946,19.214 9.638,19.214 ZM9.638,9.614 C7.652,9.614 6.038,11.229 6.038,13.214 C6.038,15.199 7.652,16.814 9.638,16.814 C11.623,16.814 13.238,15.199 13.238,13.214 C13.238,11.229 11.623,9.614 9.638,9.614 ZM8.475,0.014 C8.475,0.014 10.838,0.014 10.838,0.014 C10.838,0.014 10.838,4.814 10.838,4.814 C10.838,4.814 8.475,4.814 8.475,4.814 C8.475,4.814 8.475,0.014 8.475,0.014 Z" id="path-1" class="cls-2" fill-rule="evenodd"/>
</svg>
