<svg xmlns="http://www.w3.org/2000/svg" xmlns:xlink="http://www.w3.org/1999/xlink" preserveAspectRatio="xMidYMid" width="44" height="45" viewBox="0 0 44 45">
  <defs>
    <style>

      .cls-2 {
        fill: #ffffff;
      }
    </style>
  </defs>
  <path d="M42.227,6.097 C42.227,6.097 22.749,0.107 22.749,0.107 C22.261,-0.043 21.738,-0.043 21.249,0.107 C21.249,0.107 1.771,6.097 1.771,6.097 C0.721,6.421 0.005,7.380 0.005,8.465 C0.005,34.992 13.611,41.332 20.922,44.737 C21.263,44.897 21.630,44.976 21.998,44.976 C22.366,44.976 22.733,44.897 23.074,44.737 C30.385,41.332 43.992,34.992 43.992,8.465 C43.994,7.380 43.278,6.421 42.227,6.097 ZM31.051,7.857 C31.051,7.857 33.748,8.691 33.748,8.691 C33.748,8.691 33.748,30.299 33.748,30.299 C32.913,31.587 32.005,32.705 31.051,33.686 C31.051,33.686 31.051,7.857 31.051,7.857 ZM21.994,39.750 C21.955,39.731 21.935,39.712 21.871,39.693 C21.871,39.693 21.871,5.110 21.871,5.110 C21.871,5.110 21.994,5.073 21.994,5.073 C21.994,5.073 25.016,6.000 25.016,6.000 C25.016,6.000 25.016,38.214 25.016,38.214 C23.983,38.792 22.962,39.292 21.994,39.750 ZM36.765,23.976 C36.765,23.976 36.765,9.621 36.765,9.621 C36.765,9.621 38.913,10.282 38.913,10.282 C38.773,15.873 37.985,20.351 36.765,23.976 Z" id="path-1" class="cls-2" fill-rule="evenodd"/>
</svg>
