<svg xmlns="http://www.w3.org/2000/svg" xmlns:xlink="http://www.w3.org/1999/xlink" preserveAspectRatio="xMidYMid" width="54" height="52" viewBox="0 0 54 52">
  <defs>
    <style>

      .cls-2 {
        fill: #ffffff;
      }
    </style>
  </defs>
  <path d="M30.087,-0.000 C21.918,-0.000 14.689,4.114 10.313,10.392 C11.219,10.989 12.101,11.806 12.955,12.857 C16.220,7.932 21.498,4.476 27.606,3.734 C27.606,3.734 30.086,7.969 30.086,7.969 C30.086,7.969 32.567,3.734 32.567,3.734 C41.955,4.875 49.417,12.404 50.549,21.876 C50.549,21.876 46.351,24.379 46.351,24.379 C46.351,24.379 50.549,26.882 50.549,26.882 C49.793,33.215 46.198,38.667 41.098,41.934 C41.423,42.682 41.606,43.446 41.639,44.233 C41.662,44.809 41.604,45.353 41.485,45.869 C49.076,41.753 54.250,33.666 54.250,24.379 C54.250,10.936 43.411,-0.000 30.087,-0.000 ZM36.253,40.150 C30.683,35.634 29.125,37.854 26.598,40.404 C24.833,42.185 20.368,38.466 16.512,34.575 C12.657,30.685 8.971,26.180 10.736,24.400 C13.263,21.850 15.463,20.278 10.985,14.659 C6.509,9.038 3.525,13.353 1.077,15.824 C-1.750,18.675 0.928,29.299 11.334,39.800 C21.743,50.300 32.272,53.000 35.097,50.150 C37.545,47.680 41.823,44.669 36.253,40.150 ZM19.288,28.195 C19.288,23.199 25.085,22.309 25.085,20.360 C25.085,19.414 24.334,19.017 23.640,19.017 C22.364,19.017 21.652,20.454 21.652,20.454 C21.652,20.454 19.214,18.808 19.214,18.808 C19.214,18.808 20.452,15.894 23.941,15.894 C26.135,15.894 28.517,17.162 28.517,20.038 C28.517,24.259 23.115,25.072 23.021,26.814 C23.021,26.814 28.724,26.814 28.724,26.814 C28.724,26.814 28.724,29.652 28.724,29.652 C28.724,29.652 19.439,29.652 19.439,29.652 C19.345,29.122 19.288,28.649 19.288,28.195 ZM30.095,24.372 C30.095,24.372 35.273,16.120 35.273,16.120 C35.273,16.120 39.287,16.120 39.287,16.120 C39.287,16.120 39.287,23.634 39.287,23.634 C39.287,23.634 40.881,23.634 40.881,23.634 C40.881,23.634 40.881,26.378 40.881,26.378 C40.881,26.378 39.287,26.378 39.287,26.378 C39.287,26.378 39.287,29.652 39.287,29.652 C39.287,29.652 36.041,29.652 36.041,29.652 C36.041,29.652 36.041,26.378 36.041,26.378 C36.041,26.378 30.095,26.378 30.095,26.378 C30.095,26.378 30.095,24.372 30.095,24.372 C30.095,24.372 30.095,24.372 30.095,24.372 ZM36.041,23.634 C36.041,23.634 36.041,20.606 36.041,20.606 C36.041,19.868 36.154,19.092 36.154,19.092 C36.154,19.092 36.116,19.092 36.116,19.092 C36.116,19.092 35.835,19.924 35.460,20.492 C35.460,20.492 33.434,23.596 33.434,23.596 C33.434,23.596 33.434,23.634 33.434,23.634 C33.434,23.634 36.041,23.634 36.041,23.634 C36.041,23.634 36.041,23.634 36.041,23.634 Z" id="path-1" class="cls-2" fill-rule="evenodd"/>
</svg>
