<svg xmlns="http://www.w3.org/2000/svg" xmlns:xlink="http://www.w3.org/1999/xlink" preserveAspectRatio="xMidYMid" width="44" height="47" viewBox="0 0 44 47">
  <defs>
    <style>

      .cls-2 {
        fill: #ffffff;
      }
    </style>
  </defs>
  <path d="M4.156,47.000 C1.538,47.000 -0.006,45.152 -0.006,43.512 C-0.006,32.689 0.042,0.000 0.042,0.000 C0.042,0.000 40.974,0.000 40.974,0.000 C40.974,0.000 40.974,3.491 40.974,3.491 C40.974,3.491 44.005,3.491 44.005,3.491 C44.005,3.491 44.005,47.000 44.005,47.000 C44.005,47.000 4.156,47.000 4.156,47.000 ZM38.374,2.613 C36.030,2.613 4.762,2.613 2.418,2.613 C2.418,3.285 2.418,6.456 2.418,10.708 C2.418,10.708 38.374,10.708 38.374,10.708 C38.374,6.456 38.374,3.283 38.374,2.613 ZM38.374,12.598 C38.374,12.598 2.418,12.598 2.418,12.598 C2.418,23.434 2.418,39.302 2.418,40.904 C4.762,40.904 36.030,40.904 38.374,40.904 C38.374,39.302 38.374,23.434 38.374,12.598 ZM41.413,6.096 C41.318,6.096 41.160,6.096 40.973,6.096 C40.973,6.096 40.973,43.512 40.973,43.512 C40.973,43.512 2.695,43.512 2.695,43.512 C2.928,43.965 3.355,44.393 4.156,44.393 C4.156,44.393 38.985,44.393 41.414,44.393 C41.414,42.023 41.414,8.469 41.413,6.096 ZM18.455,33.464 C18.455,33.464 4.689,33.464 4.689,33.464 C4.689,33.464 4.689,30.844 4.689,30.844 C4.689,30.844 18.455,30.844 18.455,30.844 C18.455,30.844 18.455,33.464 18.455,33.464 ZM18.455,38.764 C18.455,38.764 4.689,38.764 4.689,38.764 C4.689,38.764 4.689,36.146 4.689,36.146 C4.689,36.146 18.455,36.146 18.455,36.146 C18.455,36.146 18.455,38.764 18.455,38.764 ZM35.048,17.536 C35.048,17.536 21.972,17.536 21.972,17.536 C21.972,17.536 21.972,14.925 21.972,14.925 C21.972,14.925 35.048,14.925 35.048,14.925 C35.048,14.925 35.048,17.536 35.048,17.536 ZM35.048,22.846 C35.048,22.846 21.972,22.846 21.972,22.846 C21.972,22.846 21.972,20.229 21.972,20.229 C21.972,20.229 35.048,20.229 35.048,20.229 C35.048,20.229 35.048,22.846 35.048,22.846 ZM35.048,28.158 C35.048,28.158 21.972,28.158 21.972,28.158 C21.972,28.158 21.972,25.537 21.972,25.537 C21.972,25.537 35.048,25.537 35.048,25.537 C35.048,25.537 35.048,28.158 35.048,28.158 ZM35.048,33.177 C35.048,33.177 21.972,33.177 21.972,33.177 C21.972,33.177 21.972,30.556 21.972,30.556 C21.972,30.556 35.048,30.556 35.048,30.556 C35.048,30.556 35.048,33.177 35.048,33.177 ZM35.048,38.480 C35.048,38.480 21.972,38.480 21.972,38.480 C21.972,38.480 21.972,35.865 21.972,35.865 C21.972,35.865 35.048,35.865 35.048,35.865 C35.048,35.865 35.048,38.480 35.048,38.480 ZM4.837,14.925 C4.837,14.925 18.205,14.925 18.205,14.925 C18.205,14.925 18.205,28.157 18.205,28.157 C18.205,28.157 4.837,28.157 4.837,28.157 C4.837,28.157 4.837,14.925 4.837,14.925 ZM28.546,8.967 C28.546,8.967 13.077,8.967 13.077,8.967 C13.077,8.967 13.077,4.315 13.077,4.315 C13.077,4.315 28.546,4.315 28.546,4.315 C28.546,4.315 28.546,8.967 28.546,8.967 Z" id="path-1" class="cls-2" fill-rule="evenodd"/>
</svg>
