<svg xmlns="http://www.w3.org/2000/svg" xmlns:xlink="http://www.w3.org/1999/xlink" preserveAspectRatio="xMidYMid" width="51" height="42" viewBox="0 0 51 42">
  <defs>
    <style>

      .cls-2 {
        fill: #ffffff;
      }
    </style>
  </defs>
  <path d="M47.326,13.232 C47.286,13.232 47.249,13.219 47.215,13.217 C47.215,13.217 42.244,36.614 42.244,36.614 C42.244,36.614 8.754,36.614 8.754,36.614 C8.754,36.614 3.785,13.217 3.785,13.217 C3.746,13.221 3.717,13.232 3.676,13.232 C1.650,13.232 -0.000,11.412 -0.000,9.165 C-0.000,6.925 1.650,5.103 3.676,5.103 C5.706,5.103 7.358,6.925 7.358,9.165 C7.358,10.623 6.660,11.891 5.617,12.612 C7.826,15.982 10.959,19.897 14.176,21.030 C18.420,22.523 22.370,13.347 24.311,7.893 C22.868,7.343 21.819,5.841 21.819,4.060 C21.819,1.820 23.469,-0.000 25.497,-0.000 C27.527,-0.000 29.175,1.820 29.175,4.060 C29.175,5.841 28.126,7.343 26.683,7.893 C28.628,13.347 32.582,22.523 36.820,21.030 C40.040,19.897 43.167,15.982 45.381,12.612 C44.334,11.891 43.637,10.623 43.637,9.165 C43.637,6.925 45.287,5.103 47.324,5.103 C49.348,5.103 50.998,6.925 51.000,9.165 C51.000,11.412 49.350,13.232 47.326,13.232 ZM42.075,42.000 C42.075,42.000 8.923,42.000 8.923,42.000 C8.923,42.000 8.923,37.437 8.923,37.437 C8.923,37.437 42.075,37.437 42.075,37.437 C42.075,37.437 42.075,42.000 42.075,42.000 Z" id="path-1" class="cls-2" fill-rule="evenodd"/>
</svg>
