<svg xmlns="http://www.w3.org/2000/svg" xmlns:xlink="http://www.w3.org/1999/xlink" preserveAspectRatio="xMidYMid" width="39" height="39" viewBox="0 0 39 39">
  <defs>
    <style>

      .cls-2 {
        fill: #99286b;
      }
    </style>
  </defs>
  <path d="M25.503,22.787 C25.503,22.787 22.782,15.412 22.782,15.412 C22.782,15.412 18.181,28.285 18.181,28.285 C18.181,28.285 14.195,19.655 14.195,19.655 C14.195,19.655 12.757,22.787 12.757,22.787 C12.757,22.787 -0.013,22.787 -0.013,22.787 C-0.013,22.787 -0.013,20.387 -0.013,20.387 C-0.013,20.387 11.218,20.387 11.218,20.387 C11.218,20.387 14.188,13.915 14.188,13.915 C14.188,13.915 17.897,21.947 17.897,21.947 C17.897,21.947 22.744,8.380 22.744,8.380 C22.744,8.380 27.176,20.387 27.176,20.387 C27.176,20.387 38.387,20.387 38.387,20.387 C38.387,20.387 38.387,22.787 38.387,22.787 C38.387,22.787 25.503,22.787 25.503,22.787 ZM33.868,17.236 C35.214,15.625 35.987,13.493 35.987,11.387 C35.987,6.425 31.950,2.387 26.987,2.387 C24.314,2.387 21.805,3.544 20.105,5.561 C20.105,5.561 19.187,6.650 19.187,6.650 C19.187,6.650 18.270,5.561 18.270,5.561 C16.570,3.544 14.061,2.387 11.387,2.387 C6.425,2.387 2.387,6.425 2.387,11.387 C2.387,13.493 3.160,15.625 4.508,17.236 C4.508,17.236 2.667,18.776 2.667,18.776 C0.939,16.710 -0.013,14.086 -0.013,11.387 C-0.013,5.101 5.102,-0.013 11.387,-0.013 C14.318,-0.013 17.095,1.089 19.187,3.047 C21.280,1.089 24.057,-0.013 26.987,-0.013 C33.273,-0.013 38.387,5.101 38.387,11.387 C38.387,14.086 37.436,16.710 35.707,18.776 C35.707,18.776 33.868,17.236 33.868,17.236 ZM18.545,35.987 C18.545,35.987 19.830,35.987 19.830,35.987 C19.830,35.987 29.070,25.033 29.070,25.033 C29.070,25.033 30.905,26.580 30.905,26.580 C30.905,26.580 20.945,38.387 20.945,38.387 C20.945,38.387 17.430,38.387 17.430,38.387 C17.430,38.387 7.470,26.580 7.470,26.580 C7.470,26.580 9.304,25.033 9.304,25.033 C9.304,25.033 18.545,35.987 18.545,35.987 Z" id="path-1" class="cls-2" fill-rule="evenodd"/>
</svg>
