<svg xmlns="http://www.w3.org/2000/svg" xmlns:xlink="http://www.w3.org/1999/xlink" preserveAspectRatio="xMidYMid" width="34" height="42" viewBox="0 0 34 42">
  <defs>
    <style>

      .cls-2 {
        fill: #99286b;
      }
    </style>
  </defs>
  <path d="M30.711,35.082 C30.711,35.082 30.518,35.195 30.518,35.195 C30.518,35.195 18.531,41.591 18.531,41.591 C18.531,41.591 15.281,41.591 15.281,41.591 C15.281,41.591 3.101,35.081 3.101,35.081 C0.217,33.355 0.006,31.467 0.006,28.592 C0.006,28.592 0.006,11.691 0.006,11.691 C0.006,11.691 2.606,11.691 2.606,11.691 C2.606,11.691 2.606,28.592 2.606,28.592 C2.606,31.228 2.774,31.890 4.555,32.920 C4.555,32.920 4.561,32.924 4.561,32.924 C4.561,32.924 15.931,38.992 15.931,38.992 C15.931,38.992 17.881,38.992 17.881,38.992 C17.881,38.992 29.258,32.920 29.258,32.920 C31.039,31.890 31.206,31.228 31.206,28.592 C31.206,28.592 31.206,11.691 31.206,11.691 C31.206,11.691 33.806,11.691 33.806,11.691 C33.806,11.691 33.806,28.592 33.806,28.592 C33.806,31.467 33.595,33.355 30.711,35.082 ZM7.806,15.591 C7.806,15.591 16.906,15.591 16.906,15.591 C16.906,15.591 16.906,18.192 16.906,18.192 C16.906,18.192 7.806,18.192 7.806,18.192 C7.806,18.192 7.806,15.591 7.806,15.591 ZM26.006,28.592 C26.006,28.592 7.806,28.592 7.806,28.592 C7.806,28.592 7.806,25.991 7.806,25.991 C7.806,25.991 26.006,25.991 26.006,25.991 C26.006,25.991 26.006,28.592 26.006,28.592 ZM7.806,20.792 C7.806,20.792 26.006,20.792 26.006,20.792 C26.006,20.792 26.006,23.392 26.006,23.392 C26.006,23.392 7.806,23.392 7.806,23.392 C7.806,23.392 7.806,20.792 7.806,20.792 ZM16.906,4.675 C15.313,7.319 12.412,9.092 9.106,9.092 C9.106,9.092 0.006,9.092 0.006,9.092 C0.006,9.092 0.006,6.492 0.006,6.492 C0.006,6.492 9.106,6.492 9.106,6.492 C12.690,6.492 15.606,3.575 15.606,-0.009 C15.606,-0.009 18.206,-0.009 18.206,-0.009 C18.206,3.575 21.122,6.492 24.706,6.492 C24.706,6.492 33.806,6.492 33.806,6.492 C33.806,6.492 33.806,9.092 33.806,9.092 C33.806,9.092 24.706,9.092 24.706,9.092 C21.400,9.092 18.499,7.319 16.906,4.675 Z" id="path-1" class="cls-2" fill-rule="evenodd"/>
</svg>
