<svg xmlns="http://www.w3.org/2000/svg" xmlns:xlink="http://www.w3.org/1999/xlink" preserveAspectRatio="xMidYMid" width="38" height="38" viewBox="0 0 38 38">
  <defs>
    <style>

      .cls-2 {
        fill: #99286b;
      }
    </style>
  </defs>
  <path d="M35.995,7.692 C35.995,7.692 33.843,5.540 33.843,5.540 C33.843,5.540 28.104,11.279 28.104,11.279 C28.104,11.279 26.407,9.582 26.407,9.582 C26.407,9.582 32.146,3.843 32.146,3.843 C32.146,3.843 29.995,1.692 29.995,1.692 C29.995,1.692 31.692,-0.005 31.692,-0.005 C31.692,-0.005 37.692,5.995 37.692,5.995 C37.692,5.995 35.995,7.692 35.995,7.692 ZM15.534,32.334 C14.130,33.738 12.286,34.439 10.442,34.439 C8.599,34.439 6.755,33.738 5.352,32.334 C2.545,29.526 2.545,24.958 5.352,22.152 C5.352,22.152 20.334,7.169 20.334,7.169 C20.334,7.169 30.516,17.352 30.516,17.352 C30.516,17.352 15.534,32.334 15.534,32.334 ZM16.819,14.079 C16.819,14.079 18.808,16.065 18.808,16.065 C18.808,16.065 17.112,17.764 17.112,17.764 C17.112,17.764 15.122,15.777 15.122,15.777 C15.122,15.777 15.954,14.944 15.954,14.944 C15.954,14.944 13.219,17.678 13.219,17.678 C13.219,17.678 15.208,19.665 15.208,19.665 C15.208,19.665 13.512,21.364 13.512,21.364 C13.512,21.364 11.522,19.377 11.522,19.377 C11.522,19.377 12.288,18.609 12.288,18.609 C12.288,18.609 9.619,21.279 9.619,21.279 C9.619,21.279 11.608,23.265 11.608,23.265 C11.608,23.265 9.912,24.964 9.912,24.964 C9.912,24.964 7.922,22.977 7.922,22.977 C7.922,22.977 8.718,22.180 8.718,22.180 C8.718,22.180 7.049,23.849 7.049,23.849 C5.178,25.720 5.178,28.766 7.049,30.637 C8.920,32.508 11.965,32.508 13.837,30.637 C13.837,30.637 27.122,17.352 27.122,17.352 C27.122,17.352 20.334,10.563 20.334,10.563 C20.334,10.563 16.819,14.079 16.819,14.079 ZM1.692,37.692 C1.692,37.692 -0.005,35.995 -0.005,35.995 C-0.005,35.995 2.939,33.050 2.939,33.050 C2.939,33.050 4.636,34.747 4.636,34.747 C4.636,34.747 1.692,37.692 1.692,37.692 Z" id="path-1" class="cls-2" fill-rule="evenodd"/>
</svg>
